<svg xmlns="http://www.w3.org/2000/svg" xmlns:xlink="http://www.w3.org/1999/xlink" version="1.1" width="256" height="256" viewBox="0 0 256 256" xml:space="preserve">

<defs>
</defs>
<g style="stroke: none; stroke-width: 0; stroke-dasharray: none; stroke-linecap: butt; stroke-linejoin: miter; stroke-miterlimit: 10; fill: none; fill-rule: nonzero; opacity: 1;" transform="translate(1.4065934065934016 1.4065934065934016) scale(2.81 2.81)" >
	<path d="M 84.99 37.498 l -16.835 -2.571 c -0.428 -0.065 -0.824 -0.277 -1.115 -0.597 l -8.952 -9.805 c -1.115 -1.222 -2.703 -1.922 -4.357 -1.922 H 25.005 c -1.991 0 -3.833 0.993 -4.928 2.656 l -5.862 8.905 c -0.234 0.356 -0.586 0.625 -0.992 0.759 l -9.169 3.022 C 1.629 38.744 0 40.996 0 43.548 v 9.404 c 0 3.254 2.647 5.9 5.9 5.9 h 3.451 c 0.969 4.866 5.269 8.545 10.416 8.545 s 9.447 -3.679 10.416 -8.545 h 30.139 c 0.969 4.866 5.27 8.545 10.416 8.545 s 9.446 -3.679 10.415 -8.545 H 84.1 c 3.254 0 5.9 -2.646 5.9 -5.9 v -9.622 C 90 40.394 87.893 37.941 84.99 37.498 z M 19.767 63.397 c -3.652 0 -6.623 -2.971 -6.623 -6.622 c 0 -3.652 2.971 -6.623 6.623 -6.623 s 6.623 2.971 6.623 6.623 C 26.39 60.427 23.419 63.397 19.767 63.397 z M 70.738 63.397 c -3.652 0 -6.623 -2.971 -6.623 -6.622 c 0 -3.652 2.971 -6.623 6.623 -6.623 c 3.651 0 6.622 2.971 6.622 6.623 C 77.36 60.427 74.39 63.397 70.738 63.397 z M 86 52.952 c 0 1.048 -0.853 1.9 -1.9 1.9 h -2.922 c -0.908 -4.941 -5.239 -8.7 -10.439 -8.7 s -9.531 3.759 -10.44 8.7 H 30.207 c -0.909 -4.941 -5.24 -8.7 -10.44 -8.7 s -9.531 3.759 -10.439 8.7 H 5.9 c -1.048 0 -1.9 -0.853 -1.9 -1.9 v -9.404 c 0 -0.822 0.524 -1.547 1.306 -1.805 l 9.168 -3.021 c 1.26 -0.415 2.354 -1.253 3.083 -2.36 l 5.861 -8.905 c 0.353 -0.536 0.946 -0.855 1.587 -0.855 H 53.73 c 0.532 0 1.044 0.226 1.403 0.62 l 8.952 9.805 c 0.907 0.993 2.139 1.652 3.467 1.854 l 16.834 2.571 C 85.321 41.595 86 42.385 86 43.331 V 52.952 z" style="stroke: none; stroke-width: 1; stroke-dasharray: none; stroke-linecap: butt; stroke-linejoin: miter; stroke-miterlimit: 10; fill: rgb(0,0,0); fill-rule: nonzero; opacity: 1;" transform=" matrix(1 0 0 1 0 0) " stroke-linecap="round" />
</g>
</svg>