<?xml version="1.0" encoding="utf-8"?>
<svg viewBox="165.136 56.608 295.364 329.149" xmlns="http://www.w3.org/2000/svg">
  <g id="SvgjsG1885" featurekey="symbolFeature-0" transform="matrix(1.904174, 0, 0, 1.904174, 202.727783, 56.13213)" fill="#111">
    <path xmlns="http://www.w3.org/2000/svg" d="M47.646,60.65c-19.095,0-34.935-4.411-37.971-10.204c3.04,22.626,18.9,49.804,38.021,49.804  c19.2,0,35.116-27.406,38.061-50.083C83.095,56.094,67.05,60.65,47.646,60.65z"/>
    <path xmlns="http://www.w3.org/2000/svg" d="M100.786,19.487c-4.564,2.482-14.294-4.7-19.786-5.778c0.531-0.2,1.037-0.38,1.486-0.514  c4.641-1.382,17.789,4.609,22.172,5.837c4.385,1.228-2.321-18.74-6.573-14.287C93.832,9.2,80.297,4.131,75.914,6.589  c-1.24,0.694-2.391,2.074-3.413,3.682C65.797,4.021,57.146,0.25,47.697,0.25c-21.293,0-38.555,19.12-38.555,42.704  c0,1.394,0.064,2.828,0.182,4.284c1.876-6.197,18.315-8.125,38.322-8.125c20.344,0,36.992,2.091,38.4,8.439  c0.133-1.566,0.204-3.103,0.204-4.598c0-7.528-1.766-14.599-4.853-20.741c0.89-0.037,1.715-0.046,2.409-0.006  c4.777,0.273,15.916,10.533,19.812,13.217C107.517,38.111,105.938,16.687,100.786,19.487z"/>
    <path xmlns="http://www.w3.org/2000/svg" d="M45.107,52.502l-22.511-8.253l-1.691,4.616l9.014,1.355c-0.622,0.564-1.02,1.375-1.02,2.282c0,1.71,1.387,3.097,3.097,3.097  c1.711,0,3.098-1.387,3.098-3.097c0-0.576-0.168-1.109-0.441-1.572L45.107,52.502z"/>
    <path xmlns="http://www.w3.org/2000/svg" d="M65.476,50.22l9.014-1.355l-1.691-4.617l-22.512,8.254l10.456-1.57c-0.275,0.463-0.441,0.995-0.441,1.57  c0,1.71,1.387,3.098,3.097,3.098s3.1-1.388,3.1-3.098C66.494,51.595,66.099,50.784,65.476,50.22z"/>
  </g>
  <path d="M0.52 40 c0 0 1.88 -2.4 1.88 -4.8 l0 -18.44 c0 -2.4 -1.88 -4.76 -1.88 -4.76 l11.72 0 c6.56 0 10.72 2.08 10.72 7.04 c0 2.24 -1.08 4.2 -2.96 5.6 c3.56 1.16 6 3.32 6 6.64 c0 6.32 -7.16 8.72 -14.48 8.72 l-11 0 z M15.68 23.76 c0.44 -0.76 0.72 -1.68 0.72 -2.8 c0 -2.36 -2.32 -3.24 -4.88 -3.24 l-1.12 0 l0 5.88 l1.92 0 c1.16 0 2.28 0.04 3.36 0.16 z M10.4 34.28 l2.24 0 c2.84 0 5 -1.08 5 -3.08 c0 -2.32 -2.48 -3.08 -5.32 -3.08 l-1.92 0 l0 6.16 z M51.28 40.56 c-5.2 0 -10 -3.4 -10.76 -9.68 c-0.76 0.04 -2.6 0.08 -3.32 0.08 l0 4.28 c0 2.36 1.88 4.76 1.88 4.76 l-11.76 0 s1.88 -2.4 1.88 -4.76 l0 -18.48 c0 -2.36 -1.88 -4.76 -1.88 -4.76 l12.4 0 c6.6 0 12.24 2.72 12.24 8.92 c0 4.16 -2.08 6.84 -5.2 8.36 c0.12 3.44 3.76 4.36 6.4 2.64 l0 8.48 c-0.6 0.12 -1.24 0.16 -1.88 0.16 z M37.2 25.64 l1.4 0 c2.84 0 5 -1.4 5 -3.96 c0 -2.96 -2.44 -3.96 -5.28 -3.96 l-1.12 0 l0 7.92 z M53.17121 40 c0 0 1.9932 -1.5804 3.0424 -4.7728 l6.0636 -18.454 c0.9864 -3.0024 0.41404 -4.7736 0.41404 -4.7736 l12.709 0 s-0.5724 1.7712 0.41404 4.7736 l0 0 l6.0636 18.454 c1.0492 3.1924 3.0424 4.7724 3.0424 4.7724 l-11.749 0 s1.4008 -1.644 0.51436 -4.72 l-9.28 0 c-0.8864 3.076 0.51436 4.72 0.51436 4.72 l-11.749 0 z M66.046 29.48 l6 0 l-3 -10.48 z M93.52000000000001 40.64 c-3.44 0 -8.2 -1.48 -8.2 -1.48 l2.8 -7.96 s1.88 3.8 5.2 3.8 c2.68 0 4.36 -1.16 4.36 -2.92 c0 -3.2 -11.76 -3.3984 -11.76 -11.52 c0 -5.96 4.92 -9.12 11.64 -9.12 c3.32 0 7.36 1.8 7.36 1.8 l-2.76 7.52 s-2.24 -3.96 -4.8 -3.96 c-2.16 0 -3.36 1.36 -3.36 2.68 c0 3.12 12.08 3.64 12.08 11.6 c0 5.92 -5.52 9.56 -12.56 9.56 z M107.4 40 c0 0 1.88 -2.4 1.88 -4.76 l0 -18.48 c0 -2.36 -1.88 -4.76 -1.88 -4.76 l11.76 0 s-1.88 2.4 -1.88 4.76 l0 18.48 c0 2.36 1.88 4.76 1.88 4.76 l-11.76 0 z M120.2 40 c0 0 1.88 -2.4 1.88 -4.8 l0 -18.44 c0 -2.4 -1.88 -4.76 -1.88 -4.76 l11.76 0 s-1.88 2.36 -1.88 4.76 l0 16.84 l6.04 0 c2.36 0 4.76 -1.88 4.76 -1.88 l0 8.28 l-20.68 0 z M141.8 40 c0 0 1.88 -2.36 1.88 -4.76 l0 -18.44 c0 -2.4 -1.88 -4.8 -1.88 -4.8 l21.48 0 l0 8.28 s-2.4 -1.88 -4.8 -1.88 l-6.8 0 l0 5.2 l2.8 0 c2.4 0 4.8 -1.88 4.8 -1.88 l0 9.36 s-2.4 -1.88 -4.8 -1.88 l-2.8 0 l0 4.4 l6.8 0 c2.4 0 4.8 -1.88 4.8 -1.88 l0 8.28 l-21.48 0 z M164.60000000000002 40 c0 0 1.88 -2.4 1.88 -4.76 l0 -18.48 c0 -2.36 -1.88 -4.76 -1.88 -4.76 l11.76 0 s-1.88 2.4 -1.88 4.76 l0 18.48 c0 2.36 1.88 4.76 1.88 4.76 l-11.76 0 z M201.36 40.56 c-5.2 0 -10 -3.4 -10.76 -9.68 c-0.76 0.04 -2.6 0.08 -3.32 0.08 l0 4.28 c0 2.36 1.88 4.76 1.88 4.76 l-11.76 0 s1.88 -2.4 1.88 -4.76 l0 -18.48 c0 -2.36 -1.88 -4.76 -1.88 -4.76 l12.4 0 c6.6 0 12.24 2.72 12.24 8.92 c0 4.16 -2.08 6.84 -5.2 8.36 c0.12 3.44 3.76 4.36 6.4 2.64 l0 8.48 c-0.6 0.12 -1.24 0.16 -1.88 0.16 z M187.28000000000003 25.64 l1.4 0 c2.84 0 5 -1.4 5 -3.96 c0 -2.96 -2.44 -3.96 -5.28 -3.96 l-1.12 0 l0 7.92 z M218.08 40.56 c-7.32 0 -13.64 -3.6 -13.64 -14.56 c0 -9.4 5.52 -14.56 12.84 -14.56 s13.64 3.6 13.64 14.56 c0 9.44 -5.52 14.56 -12.84 14.56 z M217.84 34.76 c2.68 0 4.68 -3.12 4.68 -8.76 c0 -6.6 -2.32 -8.72 -5 -8.72 s-4.68 3.08 -4.68 8.72 c0 6.6 2.32 8.76 5 8.76 z" transform="matrix(1.281963, 0, 0, 1.281963, 164.469116, 251.94252)"/>
  <g id="SvgjsG1887" featurekey="nameFeature-1" transform="matrix(2.526201, 0, 0, 2.526201, 163.822113, 283.294769)" fill="#111">
    <path d="M0.52 40 c0 0 1.8744 -2.3868 1.8744 -4.7732 l0 -18.453 c0 -2.3868 -1.8744 -4.7736 -1.8744 -4.7736 l11.428 0 s-0.31359 1.9612 0.8916 4.7736 l5.1544 12.026 l0 -12.026 c0 -2.3868 -1.8744 -4.7736 -1.8744 -4.7736 l10.948 0 s-1.874 2.3868 -1.874 4.7736 l0 18.453 c0 2.3864 1.874 4.7732 1.874 4.7732 l-11.428 0 s0.26762 -1.9664 -0.9916 -4.768 l-5.054 -11.232 l0 11.227 c0 2.3864 1.874 4.7732 1.874 4.7732 l-10.948 0 z M28.12 40 c0 0 1.88 -2.4 1.88 -4.76 l0 -18.48 c0 -2.36 -1.88 -4.76 -1.88 -4.76 l11.76 0 s-1.88 2.4 -1.88 4.76 l0 18.48 c0 2.36 1.88 4.76 1.88 4.76 l-11.76 0 z M40.92000000000001 40 c0 0 1.8744 -2.3868 1.8744 -4.7732 l0 -18.453 c0 -2.3868 -1.8744 -4.7736 -1.8744 -4.7736 l11.428 0 s-0.31359 1.9612 0.8916 4.7736 l5.1544 12.026 l0 -12.026 c0 -2.3868 -1.8744 -4.7736 -1.8744 -4.7736 l10.948 0 s-1.874 2.3868 -1.874 4.7736 l0 18.453 c0 2.3864 1.874 4.7732 1.874 4.7732 l-11.428 0 s0.26762 -1.9664 -0.9916 -4.768 l-5.054 -11.232 l0 11.227 c0 2.3864 1.874 4.7732 1.874 4.7732 l-10.948 0 z M71.04 40.56 c-0.76 0 -1.52 -0.04 -2.24 -0.16 l0 -8.52 s7.08 3.76 7.08 -1.88 l0 -13.24 c0 -2.4 -1.88 -4.76 -1.88 -4.76 l11.76 0 s-1.88 2.36 -1.88 4.76 l0 13.24 c0 6.84 -6.16 10.56 -12.84 10.56 z M85.69121 40 c0 0 1.9932 -1.5804 3.0424 -4.7728 l6.0636 -18.454 c0.9864 -3.0024 0.41404 -4.7736 0.41404 -4.7736 l12.709 0 s-0.5724 1.7712 0.41404 4.7736 l0 0 l6.0636 18.454 c1.0492 3.1924 3.0424 4.7724 3.0424 4.7724 l-11.749 0 s1.4008 -1.644 0.51436 -4.72 l-9.28 0 c-0.8864 3.076 0.51436 4.72 0.51436 4.72 l-11.749 0 z M98.566 29.48 l6 0 l-3 -10.48 z"/>
  </g>
</svg>