<?xml version="1.0" standalone="no"?>
<!DOCTYPE svg PUBLIC "-//W3C//DTD SVG 20010904//EN"
 "http://www.w3.org/TR/2001/REC-SVG-20010904/DTD/svg10.dtd">
<svg version="1.0" xmlns="http://www.w3.org/2000/svg"
 width="700.000000pt" height="700.000000pt" viewBox="0 0 700.000000 700.000000"
 preserveAspectRatio="xMidYMid meet">
<metadata>
Created by potrace 1.14, written by Peter Selinger 2001-2017
</metadata>
<g transform="translate(0.000000,700.000000) scale(0.100000,-0.100000)"
fill="#000000" stroke="none">
<path d="M2930 5183 c-85 -14 -261 -69 -316 -98 -16 -8 -33 -15 -37 -15 -17 0
-200 -121 -271 -179 -207 -169 -380 -427 -471 -702 -19 -59 -38 -124 -41 -145
-3 -22 -8 -42 -10 -45 -4 -7 -12 -51 -20 -114 -8 -70 -16 -355 -9 -355 3 0 25
19 48 43 23 23 60 52 82 64 41 21 171 68 215 77 14 3 35 7 46 10 12 2 39 7 60
10 22 4 68 11 104 17 36 6 83 13 105 15 22 2 65 6 95 9 254 25 1056 25 1255 0
17 -2 55 -6 86 -9 195 -19 403 -65 509 -113 60 -27 119 -72 145 -111 l25 -37
1 50 c1 79 -2 248 -5 275 -22 179 -77 386 -140 520 l-26 55 46 3 c105 7 260
-82 544 -312 135 -110 220 -171 238 -171 51 0 65 237 23 404 -37 149 -87 205
-156 175 -16 -7 -52 -13 -80 -13 -89 -1 -170 28 -445 156 -30 14 -83 36 -119
48 l-65 23 44 12 c105 28 245 -4 644 -149 98 -36 176 -59 187 -56 79 25 -22
378 -142 498 -46 46 -78 48 -128 8 -61 -48 -122 -60 -284 -56 -78 2 -155 7
-172 10 -16 4 -88 7 -160 8 -126 2 -131 1 -178 -26 -26 -16 -64 -51 -83 -77
l-36 -49 -61 51 c-141 117 -324 215 -487 260 -173 47 -395 59 -560 31z"/>
<path d="M2215 3553 c-11 -32 -23 -62 -27 -67 -4 -6 -8 -17 -8 -26 0 -13 19
-19 88 -29 108 -15 140 -20 172 -25 14 -3 33 -5 42 -5 17 -1 17 -3 -1 -31 -48
-79 23 -181 114 -164 61 11 111 96 85 143 -6 12 -9 21 -6 21 2 0 80 -11 173
-25 92 -14 173 -25 178 -24 6 0 -19 10 -55 23 -36 13 -96 35 -135 49 -38 13
-90 32 -115 42 -25 9 -70 26 -100 37 -30 11 -64 24 -75 28 -11 5 -40 16 -65
24 -25 8 -88 31 -140 50 -52 20 -98 36 -101 36 -3 0 -14 -26 -24 -57z"/>
<path d="M3875 3549 c-88 -33 -178 -66 -200 -74 -22 -8 -78 -28 -125 -46 -47
-17 -127 -46 -178 -64 -146 -51 -141 -52 99 -15 70 11 129 20 131 20 2 0 3
-24 3 -54 0 -64 19 -91 76 -106 95 -26 169 67 124 154 -9 16 -14 30 -13 32 2
1 23 5 48 9 43 6 119 17 205 31 65 10 66 11 33 97 -16 42 -33 77 -36 76 -4 0
-79 -27 -167 -60z"/>
<path d="M4460 3331 c-123 -127 -413 -228 -790 -276 -30 -4 -64 -9 -74 -11
-96 -18 -558 -25 -761 -12 -456 30 -861 147 -1013 294 -47 46 -52 48 -48 25 3
-14 8 -44 12 -66 52 -327 224 -757 419 -1051 374 -563 837 -768 1273 -564 475
222 916 936 1028 1665 3 22 8 43 11 48 9 14 -3 4 -57 -52z"/>
</g>
</svg>
